<?xml version="1.0" encoding="UTF-8"?>
<svg data-name="Layer 1" xmlns="http://www.w3.org/2000/svg" viewBox="0 0 1080 520.57" fill="#fff">
  <path d="M512.11,0v520.57h-111.55v-30.76c0-3.94-1.57-7.73-4.36-10.52L136.94,220.03c-9.37-9.37-25.39-2.73-25.39,10.52v290.03H0V0h111.55v30.73c0,3.94,1.57,7.73,4.36,10.52l259.26,259.26c9.37,9.37,25.39,2.73,25.39-10.52V0h111.55Z"/>
  <path d="M567.89,0v520.57s111.55,0,111.55,0v-30.76c0-3.94,1.57-7.73,4.36-10.52l259.26-259.26c9.37-9.37,25.39-2.73,25.39,10.52v290.03s111.55,0,111.55,0V0s-111.55,0-111.55,0v30.73c0,3.94-1.57,7.73-4.36,10.52l-259.26,259.26c-9.37,9.37-25.39,2.73-25.39-10.52V0s-111.55,0-111.55,0Z"/>
</svg>