<?xml version="1.0" encoding="UTF-8"?>
<svg id="Layer_1" data-name="Layer 1" xmlns="http://www.w3.org/2000/svg" viewBox="0 0 1080 540">
  <defs>
    <style>
      .cls-1 {
        fill: #fff;
        stroke-width: 0px;
      }
    </style>
  </defs>
  <path class="cls-1" d="M512.11,0v424.29c0,63.91-49.94,115.71-111.55,115.71h0c0-24.52-9.39-48.04-26.11-65.38l-237.51-246.38c-9.37-9.72-25.39-2.84-25.39,10.91v300.85h0C49.94,540,0,488.19,0,424.29V115.71C0,51.81,49.94,0,111.55,0h0c0,24.5,9.38,48,26.08,65.32l237.54,246.4c9.37,9.72,25.39,2.84,25.39-10.91V115.71C400.56,51.81,450.5,0,512.11,0h0Z"/>
  <path class="cls-1" d="M568.46,0v424.29c0,63.91,49.94,115.71,111.55,115.71h0c0-24.52,9.39-48.04,26.11-65.38l237.51-246.38c9.37-9.72,25.39-2.84,25.39,10.91v300.85s0,0,0,0c61.61,0,111.55-51.81,111.55-115.71V115.71C1080.57,51.81,1030.63,0,969.02,0h0c0,24.5-9.38,48-26.08,65.32l-237.54,246.4c-9.37,9.72-25.39,2.84-25.39-10.91V115.71C680.01,51.81,630.07,0,568.46,0h0Z"/>
</svg>