<?xml version="1.0" encoding="UTF-8"?>
<svg id="Layer_1" data-name="Layer 1" xmlns="http://www.w3.org/2000/svg" viewBox="0 0 256 256">
  <defs>
    <style>
      .cls-1 {
        fill: #000;
        fill-rule: evenodd;
        stroke-width: 0px;
      }
    </style>
  </defs>
  <path id="github" class="cls-1" d="M128.11,0C57.27,0,0,58.67,0,131.24,0,189.26,36.69,238.37,87.6,255.75c6.36,1.31,8.7-2.82,8.7-6.3,0-3.04-.21-13.47-.21-24.34-35.64,7.82-43.06-15.65-43.06-15.65-5.73-15.21-14.21-19.12-14.21-19.12-11.66-8.04.85-8.04.85-8.04,12.94.87,19.73,13.47,19.73,13.47,11.45,19.99,29.9,14.34,37.33,10.86,1.06-8.47,4.46-14.34,8.06-17.6-28.42-3.04-58.33-14.34-58.33-64.75,0-14.34,5.09-26.07,13.15-35.2-1.27-3.26-5.73-16.73,1.27-34.77,0,0,10.82-3.48,35.21,13.47,10.44-2.87,21.21-4.33,32.03-4.35,10.82,0,21.84,1.52,32.03,4.35,24.39-16.95,35.21-13.47,35.21-13.47,7,18.03,2.54,31.51,1.27,34.77,8.27,9.13,13.15,20.86,13.15,35.2,0,50.41-29.9,61.49-58.54,64.75,4.67,4.13,8.7,11.95,8.7,24.34,0,17.6-.21,31.73-.21,36.07,0,3.48,2.33,7.61,8.7,6.3,50.9-17.39,87.6-66.49,87.6-124.51C256.21,58.67,198.73,0,128.11,0Z"/>
</svg>