<svg width="34" height="31" viewBox="0 0 34 31" fill="none" xmlns="http://www.w3.org/2000/svg">
<g filter="url(#filter0_d_66_204)">
<path d="M4.43934 12.9853C3.85355 13.5711 3.85355 14.5208 4.43934 15.1066L13.9853 24.6526C14.5711 25.2383 15.5208 25.2383 16.1066 24.6526C16.6924 24.0668 16.6924 23.117 16.1066 22.5312L7.62132 14.046L16.1066 5.56068C16.6924 4.97489 16.6924 4.02515 16.1066 3.43936C15.5208 2.85357 14.5711 2.85357 13.9853 3.43936L4.43934 12.9853ZM29.5 14.046L29.5 12.546L5.5 12.546L5.5 14.046L5.5 15.546L29.5 15.546L29.5 14.046Z" fill="#C5E50C"/>
</g>
<defs>
<filter id="filter0_d_66_204" x="0" y="0" width="33.5" height="30.0919" filterUnits="userSpaceOnUse" color-interpolation-filters="sRGB">
<feFlood flood-opacity="0" result="BackgroundImageFix"/>
<feColorMatrix in="SourceAlpha" type="matrix" values="0 0 0 0 0 0 0 0 0 0 0 0 0 0 0 0 0 0 127 0" result="hardAlpha"/>
<feOffset dy="1"/>
<feGaussianBlur stdDeviation="2"/>
<feComposite in2="hardAlpha" operator="out"/>
<feColorMatrix type="matrix" values="0 0 0 0 0 0 0 0 0 0 0 0 0 0 0 0 0 0 0.25 0"/>
<feBlend mode="normal" in2="BackgroundImageFix" result="effect1_dropShadow_66_204"/>
<feBlend mode="normal" in="SourceGraphic" in2="effect1_dropShadow_66_204" result="shape"/>
</filter>
</defs>
</svg>
