<?xml version="1.0" encoding="UTF-8"?>
<svg id="Layer_1" data-name="Layer 1" xmlns="http://www.w3.org/2000/svg" viewBox="0 0 256 256">
  <defs>
    <style>
      .cls-1 {
        fill: #000;
        stroke-width: 0px;
      }
    </style>
  </defs>
  <path id="linkedIn" class="cls-1" d="M128,0C57.31,0,0,57.31,0,128s57.31,128,128,128,128-57.31,128-128S198.69,0,128,0ZM84.7,200.18h-31.61v-97.83h31.61v97.83ZM68.89,87.44c-8.73,0-15.8-7.08-15.8-15.81s7.07-15.81,15.8-15.81,15.81,7.08,15.81,15.81-7.08,15.81-15.81,15.81ZM202.81,140.98v59.2h-31.61v-56.97c0-9.8-7.94-17.74-17.75-17.74s-17.75,7.94-17.75,17.74v56.97h-31.61v-97.83h31.61v14.16c6.62-10.17,17.78-16.84,30.43-16.84,20.31,0,36.78,17.22,36.78,38.47,0,.96-.03,1.9-.1,2.84Z"/>
</svg>