<?xml version="1.0" encoding="utf-8"?>
<svg version="1.1" id="Layer_1" xmlns="http://www.w3.org/2000/svg" xmlns:xlink="http://www.w3.org/1999/xlink" x="0px" y="0px"
	 viewBox="0 0 1080 685.31" style="enable-background:new 0 0 1080 685.31;" xml:space="preserve">
<g>
	<path d="M1080,128.49v428.32c0,70.99-57.61,128.49-128.49,128.49H128.49C57.61,685.31,0,627.8,0,556.81V128.49
		c0-22.52,5.82-43.67,16.04-62.08c3.9-7.03,13.62-8.16,19.31-2.48l495.99,495.99c4.79,4.79,12.55,4.79,17.34,0l495.99-495.99
		c5.69-5.69,15.4-4.56,19.31,2.48C1074.18,84.82,1080,105.97,1080,128.49z"/>
	<path d="M1018.64,36.74L548.67,506.7c-4.79,4.79-12.55,4.79-17.34,0L61.36,36.74c-5.63-5.63-4.58-15.2,2.29-19.22
		C82.7,6.39,104.83,0,128.49,0h823.01c23.67,0,45.79,6.39,64.84,17.52C1023.22,21.53,1024.27,31.11,1018.64,36.74z"/>
</g>
</svg>
