<svg width="128" height="128" viewBox="0 0 128 128" fill="none" xmlns="http://www.w3.org/2000/svg">
<path fill-rule="evenodd" clip-rule="evenodd" d="M64 0C42.4474 0 23.3831 10.6536 11.7859 26.9818C10.2023 29.2114 8.758 31.5468 7.46558 33.9753C2.70029 42.9293 0 53.1493 0 64C0 99.3462 28.6538 128 64 128C99.3462 128 128 99.3462 128 64C128 52.8911 125.17 42.4433 120.191 33.3383C118.875 30.9312 117.408 28.618 115.804 26.4112C104.171 10.4058 85.3005 0 64 0ZM64 8C80.6965 8 95.6863 15.307 105.946 26.8976C108.509 29.7932 108.078 34.1371 105.344 36.8716L66.3381 75.8772C64.776 77.4393 62.2433 77.4393 60.6812 75.8772L22.1981 37.3941C19.4904 34.6864 19.0365 30.3957 21.5341 27.4931C31.804 15.5578 47.0194 8 64 8ZM120 64C120 57.1021 118.753 50.4956 116.472 44.3935C115.512 41.8272 112.248 41.2813 110.31 43.2186L66.3381 87.1909C64.776 88.753 62.2433 88.753 60.6812 87.1909L17.4247 43.9344C15.4717 41.9814 12.1786 42.5554 11.2494 45.1564C9.1457 51.0449 8 57.3886 8 64C8 94.9279 33.0721 120 64 120C94.9279 120 120 94.9279 120 64Z" fill="#D9D9D9"/>
</svg>
